# AST/ASF file generated using VICON BodyLanguage
# -----------------------------------------------
:version 1.10
:name VICON
:units
  mass 1.0
  length 0.45
  angle deg
:documentation
   .ast/.asf automatically generated from VICON data using
   VICON BodyBuilder and BodyLanguage model FoxedUp or BRILLIANT.MOD
:root
   order TX TY TZ RX RY RZ
   axis XYZ
   position 0 0 0  
   orientation 0 0 0 
:bonedata
  begin
     id 1 
     name lhipjoint
     direction 0.576517 -0.752066 0.319413 
     length 2.45433 
     axis 0 0 0  XYZ
  end
  begin
     id 2 
     name lfemur
     direction 0.34202 -0.939693 0  
     length 7.54459  
     axis 0 0 20  XYZ
    dof rx ry rz
    limits (-160.0 20.0)
           (-70.0 70.0)
           (-60.0 70.0)
  end
  begin
     id 3 
     name ltibia
     direction 0.34202 -0.939693 0   
     length 7.73986   
     axis 0 0 20   XYZ
    dof rx
    limits (-10.0 170.0)
  end
  begin
     id 4 
     name lfoot
     direction 0.090693 -0.249177 0.964202   
     length 2.28437   
     axis -90 7.62852e-016 20   XYZ
    dof rx rz
    limits (-45.0 90.0)
           (-70.0 20.0)
  end
  begin
     id 5 
     name ltoes
     direction 1.5356e-011 -4.21928e-011 1   
     length 1.14243   
     axis -90 7.62852e-016 20   XYZ
    dof rx
    limits (-90.0 20.0)
  end
  begin
     id 6 
     name rhipjoint
     direction -0.573937 -0.753736 0.320122   
     length 2.44889  
     axis 0 0 0  XYZ 
  end
  begin
     id 7 
     name rfemur
     direction -0.34202 -0.939693 0   
     length 7.50166   
     axis 0 0 -20   XYZ
    dof rx ry rz
    limits (-160.0 20.0)
           (-70.0 70.0)
           (-70.0 60.0)
  end
  begin
     id 8 
     name rtibia
     direction -0.34202 -0.939693 0   
     length 7.54266   
     axis 0 0 -20   XYZ
    dof rx
    limits (-10.0 170.0)
 end
 begin
     id 9 
     name rfoot
     direction -0.114017 -0.31326 0.942798   
     length 2.34212  
     axis -90 -7.62852e-016 -20   XYZ
    dof rx rz
    limits (-45.0 90.0)
           (-20.0 70.0)
  end
  begin
     id 10 
     name rtoes
     direction -1.53557e-011 -4.21867e-011 1   
     length 1.16246   
     axis -90 -7.62852e-016 -20   XYZ
    dof rx
    limits (-90.0 20.0)
  end
  begin
     id 11 
     name lowerback
     direction -0.0228371 0.999155 -0.034167   
     length 2.0537   
     axis 0 0 0   XYZ
    dof rx ry rz
    limits (-20.0 45.0)
           (-30.0 30.0)
           (-30.0 30.0)
  end
  begin
     id 12 
     name upperback
     direction 0.0198981 0.999794 0.00389455   
     length 2.05302   
     axis 0 0 0   XYZ
    dof rx ry rz
    limits (-20.0 45.0)
           (-30.0 30.0)
           (-30.0 30.0)
  end
  begin
     id 13 
     name thorax
     direction 0.0304566 0.99935 0.0192987   
     length 2.05315   
     axis 0 0 0   XYZ
    dof rx ry rz
    limits (-20.0 45.0)
           (-30.0 30.0)
           (-30.0 30.0)
  end
  begin
     id 14 
     name lowerneck
     direction -0.0196762 0.99417 0.106017   
     length 1.82056   
     axis 0 0 0   XYZ
    dof rx ry rz
    limits (-20.0 45.0)
           (-30.0 30.0)
           (-30.0 30.0)
  end
  begin
     id 15 
     name upperneck
     direction 0.00517787 0.9802 -0.197944   
     length 1.83835   
     axis 0 0 0   XYZ
    dof rx ry rz
    limits (-20.0 45.0)
           (-30.0 30.0)
           (-30.0 30.0)
  end
  begin
     id 16
     name head
     direction 0.00211419 0.996945 -0.078081  
     length 1.85629  
     axis 0 0 0   XYZ
    dof rx ry rz
    limits (-20.0 45.0)
           (-30.0 30.0)
           (-30.0 30.0)
  end
  begin
     id 17 
     name lclavicle
     direction 0.930001 0.365811 -0.0357824  
     length 3.81961  
     axis 0 0 0   XYZ
    dof ry rz
    limits (-20.0 10.0)
           (0.0 20.0)
  end
  begin
     id 18 
     name lhumerus
     direction 1 -4.48968e-011 -3.06644e-027   
     length 5.14507   
     axis 180 -30 -90   XYZ
    dof rx ry rz
    limits (-60.0 90.0)
           (-90.0 90.0)
           (-90.0 90.0)
  end
  begin
     id 19
     name lradius
     direction 1 -4.48965e-011 9.06925e-028   
     length 3.50646   
     axis 180 -30 -90   XYZ
    dof rx
    limits (-10.0 170.0)
  end
  begin
     id 20
     name lwrist
     direction 1 -4.48957e-011 1.03922e-027   
     length 1.75323   
     axis -2.56395e-016 90 90   XYZ
    dof ry
    limits (-180.0 0.0)
 end
  begin
     id 21 
     name lhand
     direction 1 -4.48967e-011 2.08017e-027   
     length 0.629969   
     axis -1.32723e-015 90 90   XYZ
    dof rx rz
    limits (-90.0 90.0)
           (-45.0 45.0)
  end
  begin
     id 22 
     name lfingers
     direction 1 -4.49089e-011 4.20095e-027   
     length 0.507897   
     axis -2.6545e-015 90 90   XYZ
    dof rx
    limits (0.0 90.0)
  end
  begin
     id 23
     name lthumb
     direction 0.707107 -6.35001e-011 0.707107   
     length 0.729241   
     axis -90 45 5.05613e-014   XYZ
    dof rx rz
    limits (-45.0 45.0)
           (-45.0 45.0)
  end
  begin
     id 24 
     name rclavicle
     direction -0.881882 0.464123 -0.0829113   
     length 3.47515  
     axis 0 0 0   XYZ 
    dof ry rz
    limits (-10.0 20.0)
           (-20.0 0.0)
  end
  begin
     id 25 
     name rhumerus
     direction -1 -4.48961e-011 -1.55672e-027  
     length 5.232   
     axis 180 30 90   XYZ
    dof rx ry rz
    limits (-90.0 60.0)
           (-90.0 90.0)
           (-90.0 90.0)
  end
  begin
     id 26 
     name rradius
     direction -1 -4.48963e-011 6.18178e-029   
     length 3.65641   
     axis 180 30 90   XYZ
    dof rx
    limits (-10.0 170.0)
  end
  begin
     id 27 
     name rwrist
     direction -1 -4.48982e-011 1.04136e-027   
     length 1.8282   
     axis -2.56395e-016 -90 -90   XYZ
    dof ry
    limits (-180.0 0.0)
  end
  begin
     id 28
     name rhand
     direction -1 -4.48929e-011 2.07378e-027   
     length 0.656807   
     axis -1.32723e-015 -90 -90   XYZ
    dof rx rz
    limits (-90.0 90.0)
           (-45.0 45.0)
  end
  begin
     id 29
     name rfingers
     direction -1 -4.489e-011 4.13816e-027   
     length 0.529535   
     axis -2.6545e-015 -90 -90   XYZ
    dof rx
    limits (0.0 90.0)
  end
  begin
     id 30
     name rthumb
     direction -0.707107 -6.34843e-011 0.707107   
     length 0.760309   
     axis -90 -45 -5.05613e-014   XYZ
    dof rx rz
    limits (-45.0 45.0)
           (-45.0 45.0)
  end
:hierarchy
  begin
    root lhipjoint rhipjoint lowerback
    lhipjoint lfemur
    lfemur ltibia
    ltibia lfoot
    lfoot ltoes
    rhipjoint rfemur
    rfemur rtibia
    rtibia rfoot
    rfoot rtoes
    lowerback upperback
    upperback thorax
    thorax lowerneck lclavicle rclavicle
    lowerneck upperneck
    upperneck head
    lclavicle lhumerus
    lhumerus lradius
    lradius lwrist
    lwrist lhand lthumb
    lhand lfingers
    rclavicle rhumerus
    rhumerus rradius
    rradius rwrist
    rwrist rhand rthumb
    rhand rfingers
  end

#!OML:ASF H:\ManfredETheater\Project 1\Capture day 1\Session 1\subject.ASF
:FULLY-SPECIFIED
:DEGREES
1
root -0.707932 16.6296 -51.8545 15.4246 -16.8674 -8.26878
lowerback 14.4861 1.13976 12.1817
upperback -1.23228 4.03095 4.41779
thorax -9.04569 1.43467 -2.91088
lowerneck -19.4255 0.394568 0.533771
upperneck 7.89032 1.32339 -7.33599
head 5.59028 0.0718034 -2.29466
rclavicle -1.03368e-014 -2.54444e-014
rhumerus -34.5955 2.84732 -86.213
rradius 40.2104
rwrist 4.05483
rhand -14.1611 -15.0835
rfingers 7.12502
rthumb 11.9737 -44.7211
lclavicle -1.03368e-014 -2.54444e-014
lhumerus -33.9353 -2.66274 92.3525
lradius 45.8415
lwrist -0.969243
lhand -20.9389 -1.12495
lfingers 7.12502
lthumb 5.4333 28.7854
rfemur -2.58216 -1.82594 29.6001
rtibia 32.5503
rfoot -30.0085 -14.2346
rtoes -28.2873
lfemur -64.4475 11.3919 -12.2648
ltibia 54.5038
lfoot -12.8565 -1.71906
ltoes -16.6886
2
root -0.688341 16.5784 -51.7072 15.5711 -17.0745 -8.02618
lowerback 14.3859 1.17162 12.2231
upperback -1.1295 4.03715 4.26659
thorax -8.85692 1.44606 -3.09403
lowerneck -18.9842 0.456976 0.480982
upperneck 7.38662 1.37362 -7.28108
head 5.3615 0.119747 -2.25678
rclavicle -2.54444e-014 -1.11319e-014
rhumerus -34.1096 4.06292 -86.9783
rradius 40.693
rwrist 4.3209
rhand -14.2094 -15.5398
rfingers 7.12502
rthumb 11.9272 -45.1801
lclavicle -2.54444e-014 -1.11319e-014
lhumerus -33.9994 -2.71915 92.3539
lradius 46.7245
lwrist -0.420937
lhand -21.5866 -1.06445
lfingers 7.12502
lthumb 4.80793 28.861
rfemur -2.60958 -2.48316 28.8027
rtibia 33.4164
rfoot -30.8237 -13.0398
rtoes -28.0816
lfemur -65.257 11.5875 -12.9721
ltibia 55.1235
lfoot -12.8022 -1.28209
ltoes -16.2477
3
root -0.690926 16.5151 -51.5594 15.8007 -17.4198 -8.47563
lowerback 14.6283 1.35781 12.4827
upperback -0.977281 4.35142 4.30782
thorax -8.76891 1.59299 -3.26195
lowerneck -19.2037 0.478754 0.495253
upperneck 7.23859 1.38485 -7.21439
head 5.34896 0.130028 -2.23692
rclavicle 2.18663e-014 -6.04305e-014
rhumerus -33.5554 5.18735 -87.7609
rradius 41.2812
rwrist 4.87179
rhand -14.1681 -14.7485
rfingers 7.12502
rthumb 11.967 -44.3864
lclavicle 2.18663e-014 -6.04305e-014
lhumerus -34.0752 -3.04014 92.3739
lradius 47.6903
lwrist 0.0237079
lhand -21.9849 -1.1153
lfingers 7.12502
lthumb 4.42339 28.8185
rfemur -2.30879 -2.53567 28.8301
rtibia 33.8749
rfoot -31.2032 -12.2526
rtoes -27.9803
lfemur -66.0426 12.157 -12.8928
ltibia 56.0345
lfoot -12.739 -0.88359
ltoes -15.4005
4
root -0.690854 16.4524 -51.4043 15.9512 -17.7983 -8.72134
lowerback 15.0509 1.57744 12.5472
upperback -0.936604 4.71606 4.28414
thorax -8.9066 1.75426 -3.41562
lowerneck -19.3378 0.47328 0.568158
upperneck 7.13 1.35489 -7.21843
head 5.33488 0.11735 -2.25302
rclavicle 9.14409e-015 -4.77083e-014
rhumerus -33.3036 6.31762 -88.5059
rradius 42.3283
rwrist 4.88313
rhand -14.4025 -14.8798
rfingers 7.12502
rthumb 11.741 -44.5307
lclavicle 9.14409e-015 -4.77083e-014
lhumerus -34.4205 -3.44891 92.4284
lradius 48.7504
lwrist 0.548202
lhand -22.401 -1.34591
lfingers 7.12502
lthumb 4.02151 28.5959
rfemur -1.92015 -2.52844 28.549
rtibia 34.2488
rfoot -31.7595 -11.144
rtoes -27.6089
lfemur -66.7611 12.7268 -13.1112
ltibia 56.9683
lfoot -12.6501 -0.506966
ltoes -15.9576
5
root -0.698184 16.3934 -51.2266 16.2046 -17.9298 -8.90397
lowerback 15.0188 1.68806 12.611
upperback -0.863217 4.85505 4.25191
thorax -8.77754 1.82698 -3.51001
lowerneck -19.2555 0.510109 0.54741
upperneck 6.83315 1.37358 -7.08697
head 5.22672 0.144531 -2.20332
rclavicle -5.68524e-014 -5.725e-014
rhumerus -32.8804 7.74596 -89.5423
rradius 43.9394
rwrist 4.44661
rhand -14.5793 -14.5484
rfingers 7.12502
rthumb 11.5705 -44.209
lclavicle -5.68524e-014 -5.725e-014
lhumerus -35.0798 -3.75778 92.3568
lradius 50.1409
lwrist 1.03366
lhand -23.0794 -1.8105
lfingers 7.12502
lthumb 3.36643 28.1427
rfemur -1.40113 -2.46134 28.2829
rtibia 34.3691
rfoot -32.4507 -9.91183
rtoes -26.6694
lfemur -67.5566 13.109 -13.4043
ltibia 58.1292
lfoot -12.3292 -0.600356
ltoes -15.5259
6
root -0.702841 16.3312 -51.0573 16.4336 -18.1232 -9.13396
lowerback 15.1251 1.82403 12.6905
upperback -0.801536 5.05692 4.24147
thorax -8.73219 1.92338 -3.60905
lowerneck -19.2321 0.536875 0.541086
upperneck 6.60869 1.38645 -7.00058
head 5.15132 0.162866 -2.17192
rclavicle -2.10712e-014 -2.8625e-014
rhumerus -32.5451 9.0417 -90.3904
rradius 45.3544
rwrist 4.34879
rhand -14.7039 -14.3425
rfingers 7.12502
rthumb 11.4503 -44.0098
lclavicle -2.10712e-014 -2.8625e-014
lhumerus -35.6234 -4.07147 92.3372
lradius 51.4059
lwrist 1.51209
lhand -23.5035 -2.07174
lfingers 7.12502
lthumb 2.95682 27.8875
rfemur -0.821957 -2.44273 28.0539
rtibia 34.3228
rfoot -32.8501 -8.84053
rtoes -26.1142
lfemur -68.387 13.5188 -13.624
ltibia 59.334
lfoot -12.182 -0.539725
ltoes -15.3888
7
root -0.710986 16.2684 -50.8811 16.6809 -18.2705 -9.39449
lowerback 15.1946 1.95265 12.7708
upperback -0.74611 5.24432 4.23651
thorax -8.6747 2.0138 -3.69766
lowerneck -19.2295 0.563001 0.533851
upperneck 6.40609 1.39835 -6.89391
head 5.08582 0.181216 -2.1344
rclavicle -3.06128e-014 -6.36111e-015
rhumerus -32.2446 10.3512 -91.2607
rradius 47.0143
rwrist 4.17296
rhand -14.7881 -14.1286
rfingers 7.12502
rthumb 11.3691 -43.8004
lclavicle -3.06128e-014 -6.36111e-015
lhumerus -36.2847 -4.41153 92.2941
lradius 52.7668
lwrist 1.96455
lhand -23.8623 -2.33973
lfingers 7.12502
lthumb 2.61035 27.624
rfemur -0.135297 -2.3655 27.883
rtibia 34.0859
rfoot -33.1703 -7.81883
rtoes -25.5401
lfemur -69.2289 13.9067 -13.8073
ltibia 60.6681
lfoot -12.0242 -0.608876
ltoes -15.2777
8
root -0.72172 16.2057 -50.6973 16.947 -18.3654 -9.65529
lowerback 15.2152 2.06431 12.8395
upperback -0.710052 5.40145 4.23031
thorax -8.61585 2.09014 -3.77254
lowerneck -19.2362 0.596328 0.520805
upperneck 6.24846 1.42223 -6.76637
head 5.0361 0.205531 -2.08854
rclavicle -4.92986e-014 0
rhumerus -32.0117 11.6754 -92.1518
rradius 48.926
rwrist 3.93216
rhand -14.8191 -13.9317
rfingers 7.12502
rthumb 11.3393 -43.6052
lclavicle -4.92986e-014 0
lhumerus -37.0889 -4.75532 92.2269
lradius 54.222
lwrist 2.37588
lhand -24.169 -2.5975
lfingers 7.12502
lthumb 2.31415 27.3697
rfemur 0.609711 -2.26261 27.7386
rtibia 33.7439
rfoot -33.4516 -6.8488
rtoes -24.9655
lfemur -70.0651 14.2548 -13.9874
ltibia 62.0739
lfoot -11.8292 -0.807775
ltoes -15.1891
9
root -0.735297 16.1436 -50.5055 17.2337 -18.4113 -9.92475
lowerback 15.1947 2.16322 12.909
upperback -0.690919 5.53641 4.21515
thorax -8.55444 2.1556 -3.85081
lowerneck -19.2921 0.632304 0.511216
upperneck 6.15899 1.451 -6.61308
head 5.01536 0.231752 -2.03528
rclavicle -2.3059e-014 1.98785e-014
rhumerus -31.837 12.9733 -93.0616
rradius 51.0666
rwrist 3.67792
rhand -14.7807 -13.8178
rfingers 7.12502
rthumb 11.3763 -43.4892
lclavicle -2.3059e-014 1.98785e-014
lhumerus -38.02 -5.12477 92.1293
lradius 55.7576
lwrist 2.72103
lhand -24.4382 -2.83109
lfingers 7.12502
lthumb 2.05416 27.1388
rfemur 1.44658 -2.13868 27.6358
rtibia 33.2221
rfoot -33.6263 -5.9487
rtoes -24.4158
lfemur -70.8991 14.5688 -14.1528
ltibia 63.5829
lfoot -11.6259 -1.12938
ltoes -15.0773
10
root -0.75149 16.0825 -50.3054 17.538 -18.4154 -10.1932
lowerback 15.1511 2.2503 12.9681
upperback -0.699387 5.65275 4.18845
thorax -8.51299 2.21044 -3.93122
lowerneck -19.3846 0.668812 0.500137
upperneck 6.13545 1.48242 -6.43357
head 5.02075 0.259089 -1.9737
rclavicle -5.64548e-014 -1.66979e-014
rhumerus -31.7491 14.233 -93.985
rradius 53.4246
rwrist 3.43238
rhand -14.6927 -13.5488
rfingers 7.12502
rthumb 11.4611 -43.2155
lclavicle -5.64548e-014 -1.66979e-014
lhumerus -39.0877 -5.51353 92.0043
lradius 57.3578
lwrist 2.98421
lhand -24.6666 -3.04045
lfingers 7.12502
lthumb 1.83355 26.9314
rfemur 2.36984 -1.99289 27.5619
rtibia 32.5265
rfoot -33.6981 -5.113
rtoes -23.8847
lfemur -71.7162 14.8521 -14.3161
ltibia 65.176
lfoot -11.4088 -1.55516
ltoes -14.9739
11
root -0.770075 16.0231 -50.0965 17.8591 -18.3857 -10.4469
lowerback 15.0872 2.32473 13.0092
upperback -0.741996 5.7489 4.14367
thorax -8.50058 2.25325 -4.01693
lowerneck -19.4984 0.705635 0.483267
upperneck 6.17138 1.51582 -6.22305
head 5.04773 0.288022 -1.90146
rclavicle -2.78299e-015 -1.66979e-014
rhumerus -31.7609 15.4511 -94.9226
rradius 55.9671
rwrist 3.21485
rhand -14.5573 -13.171
rfingers 7.12502
rthumb 11.5917 -42.8304
lclavicle -2.78299e-015 -1.66979e-014
lhumerus -40.2929 -5.91248 91.8494
lradius 59.0033
lwrist 3.15434
lhand -24.9063 -3.23739
lfingers 7.12502
lthumb 1.6021 26.7363
rfemur 3.37199 -1.82679 27.4993
rtibia 31.6645
rfoot -33.6697 -4.3283
rtoes -23.3444
lfemur -72.5049 15.1075 -14.497
ltibia 66.834
lfoot -11.1698 -2.06042
ltoes -14.8365
